<svg xmlns="http://www.w3.org/2000/svg" xmlns:xlink="http://www.w3.org/1999/xlink" version="1.1" x="0px" y="0px" viewBox="0 0 100 125" style="enable-background:new 0 0 100 100;" xml:space="preserve"><g><path d="M99.5,37.4c-1.2-3.9-4.5-6.6-8.4-6.9l-23.4-1.8L58.9,6.2C57.4,2.4,54,0,50,0c-3.9,0-7.3,2.3-8.9,6.2l-8.8,22.6L8.8,30.6   c-3.9,0.4-7.2,3.2-8.4,7s0,7.9,3,10.5l17.9,15.8l-5.5,23.7c-0.7,3-0.1,6.1,1.7,8.5c1.8,2.4,4.6,3.9,7.6,3.9l0,0   c1.8,0,3.5-0.5,5.1-1.5L50,85.6l19.9,12.8c1.5,1,3.2,1.5,5,1.5c2.9,0,5.7-1.4,7.6-3.8c1.8-2.4,2.5-5.4,1.8-8.5l-5.6-23.7l17.9-15.8   C99.6,45.5,100.7,41.3,99.5,37.4z M91.3,41.6L69.6,60.8l6.7,28.8c0,0.2,0.1,0.7-0.2,1.2c-0.4,0.6-1.2,0.8-1.8,0.4L50,75.6   L25.7,91.2c-0.3,0.2-0.5,0.3-0.7,0.3c-0.4,0-0.8-0.2-1.1-0.6c-0.2-0.3-0.3-0.7-0.2-1.2l6.8-28.9L8.7,41.6c-0.6-0.5-0.5-1.1-0.4-1.5   c0.1-0.4,0.4-1,1.2-1.1L38,36.8L48.7,9.4c0.3-0.8,1-0.9,1.4-0.9c0.4,0,1,0.1,1.2,0.8L62,36.8L90.5,39c0.8,0.1,1.1,0.6,1.2,1   C91.8,40.4,91.9,41.1,91.3,41.6z"/></g><text x="0" y="115" fill="#000000" font-size="5px" font-weight="bold" font-family="'Helvetica Neue', Helvetica, Arial-Unicode, Arial, Sans-serif">Created by Marcel Boer</text><text x="0" y="120" fill="#000000" font-size="5px" font-weight="bold" font-family="'Helvetica Neue', Helvetica, Arial-Unicode, Arial, Sans-serif">from the Noun Project</text></svg>